<svg id="Layer_1" data-name="Layer 1" xmlns="http://www.w3.org/2000/svg" viewBox="0 0 700 700"><path d="M532.42,72.89v257.9l26.92-21.94,3-1.6,0-234.36Z"/><path d="M579.68,589.88l22-82.38,71.2-47.07L601,414.16,578.28,332l-66.21,53.86-85.18-3.78,30.91,79.58-29.91,80,85.18-4.8Z"/><path d="M114.73,72.89V299.68a197.94,197.94,0,0,1,29.91-9V72.9Z"/><path d="M27.57,472A155.38,155.38,0,0,0,297.84,576.34a114.69,114.69,0,1,1,0-208.63A155.38,155.38,0,0,0,27.17,472Z"/><path d="M343.5,72.89v54.46a94.05,94.05,0,0,1,15.15-1.6,89,89,0,0,1,14.76,1.6V72.89Z"/><path d="M358.67,155.66A74.23,74.23,0,1,0,411,177.47a74.19,74.19,0,0,0-52.34-21.81Z"/></svg>