<svg id="Layer_1" data-name="Layer 1" xmlns="http://www.w3.org/2000/svg" viewBox="0 0 700 700"><defs><style>.cls-1{fill:#fff;}</style></defs><path class="cls-1" d="M414.79,174.67a44.79,44.79,0,0,0-57.85-25.87L212.18,204a44.79,44.79,0,0,0-25.92,57.79l89.15,233.74,13.95,36.63h0a44.81,44.81,0,0,0,57.85,25.93l144.54-55.16a44.8,44.8,0,0,0,25.93-57.79ZM292.32,477.07,207.26,253.8a22.4,22.4,0,0,1,12.93-28.89L365,169.75a22.39,22.39,0,0,1,28.9,12.93L479,406Zm204.12-6.94h0A22.42,22.42,0,0,1,484,481.89L339.19,537.11a22.4,22.4,0,0,1-28.89-12.94l-10-26.15L487,426.84,497,453a22.45,22.45,0,0,1-.51,17.2Zm-79.91,12.1a14.33,14.33,0,1,1-7.53-8,14.34,14.34,0,0,1,7.53,8ZM253.18,495.11a11.21,11.21,0,0,1-14.17,7c-2.52-.84-62-21.39-86.8-77.51-13.27-30-13.94-64-2.07-101.3l-16.8,6.55h0A11.21,11.21,0,1,1,125.22,309l40.09-15.63a11.14,11.14,0,0,1,4-.72,10.69,10.69,0,0,1,2,0,11.08,11.08,0,0,1,4,1.79l.89.73.79.67a12.25,12.25,0,0,1,.9,1.12l.44.62h0a10.92,10.92,0,0,1,1,1.95l15.4,39.2h0a11.2,11.2,0,1,1-20.89,8.11l-4.54-11.65c-8,30.19-7,56.9,3.2,80.25,20.71,47,72.8,65.36,73.52,65.52h0a11.21,11.21,0,0,1,7.11,14.17Zm314-124.43L527,386.36h-1.29a9.92,9.92,0,0,1-5.71-.06h-1.63a10.5,10.5,0,0,1-1.45-.84h-.4a11,11,0,0,1-2.18-2l-.22-.84a10.65,10.65,0,0,1-1.57-2.69l-15.23-39.42a11.21,11.21,0,0,1,20.89-8.12l4.53,11.65q12.27-44.77-3-79.86c-20.72-47-72.8-65.35-73.53-65.52h0a11.2,11.2,0,1,1,7.17-21.22c2.51.84,62,21.39,86.8,77.5,13.27,30,13.94,64,2.18,101.36l16.8-6.55a11.21,11.21,0,1,1,8.12,20.89Z"/></svg>